<svg width="500" height="500" viewBox="0 0 500 500" fill="none" xmlns="http://www.w3.org/2000/svg">
<g clip-path="url(#clip0_186_339)">
<rect width="500" height="500" rx="100" fill="#44BD32"/>
<path d="M0 395H500V400C500 455.228 455.228 500 400 500H100C44.7715 500 0 455.228 0 400V395Z" fill="white"/>
<rect x="46" y="272" width="409" height="32" rx="16" fill="white"/>
<circle cx="415" cy="288" r="56" fill="white" stroke="#44BD32" stroke-width="32"/>
<path d="M104.823 448.248C104.823 444.984 105.575 442.056 107.079 439.464C108.615 436.872 110.679 434.856 113.271 433.416C115.895 431.944 118.759 431.208 121.863 431.208C125.415 431.208 128.567 432.088 131.319 433.848C134.103 435.576 136.119 438.04 137.367 441.24H130.791C129.927 439.48 128.727 438.168 127.191 437.304C125.655 436.44 123.879 436.008 121.863 436.008C119.655 436.008 117.687 436.504 115.959 437.496C114.231 438.488 112.871 439.912 111.879 441.768C110.919 443.624 110.439 445.784 110.439 448.248C110.439 450.712 110.919 452.872 111.879 454.728C112.871 456.584 114.231 458.024 115.959 459.048C117.687 460.04 119.655 460.536 121.863 460.536C123.879 460.536 125.655 460.104 127.191 459.24C128.727 458.376 129.927 457.064 130.791 455.304H137.367C136.119 458.504 134.103 460.968 131.319 462.696C128.567 464.424 125.415 465.288 121.863 465.288C118.727 465.288 115.863 464.568 113.271 463.128C110.679 461.656 108.615 459.624 107.079 457.032C105.575 454.44 104.823 451.512 104.823 448.248ZM149.344 429.48V465H143.872V429.48H149.344ZM168.1 465.432C165.604 465.432 163.348 464.872 161.332 463.752C159.316 462.6 157.732 461 156.58 458.952C155.428 456.872 154.852 454.472 154.852 451.752C154.852 449.064 155.444 446.68 156.628 444.6C157.812 442.52 159.428 440.92 161.476 439.8C163.524 438.68 165.812 438.12 168.34 438.12C170.868 438.12 173.156 438.68 175.204 439.8C177.252 440.92 178.868 442.52 180.052 444.6C181.236 446.68 181.828 449.064 181.828 451.752C181.828 454.44 181.22 456.824 180.004 458.904C178.788 460.984 177.124 462.6 175.012 463.752C172.932 464.872 170.628 465.432 168.1 465.432ZM168.1 460.68C169.508 460.68 170.82 460.344 172.036 459.672C173.284 459 174.292 457.992 175.06 456.648C175.828 455.304 176.212 453.672 176.212 451.752C176.212 449.832 175.844 448.216 175.108 446.904C174.372 445.56 173.396 444.552 172.18 443.88C170.964 443.208 169.652 442.872 168.244 442.872C166.836 442.872 165.524 443.208 164.308 443.88C163.124 444.552 162.18 445.56 161.476 446.904C160.772 448.216 160.42 449.832 160.42 451.752C160.42 454.6 161.14 456.808 162.58 458.376C164.052 459.912 165.892 460.68 168.1 460.68ZM196.938 465.432C194.858 465.432 192.986 465.064 191.322 464.328C189.69 463.56 188.394 462.536 187.434 461.256C186.474 459.944 185.962 458.488 185.898 456.888H191.562C191.658 458.008 192.186 458.952 193.146 459.72C194.138 460.456 195.37 460.824 196.842 460.824C198.378 460.824 199.562 460.536 200.394 459.96C201.258 459.352 201.69 458.584 201.69 457.656C201.69 456.664 201.21 455.928 200.25 455.448C199.322 454.968 197.834 454.44 195.786 453.864C193.802 453.32 192.186 452.792 190.938 452.28C189.69 451.768 188.602 450.984 187.674 449.928C186.778 448.872 186.33 447.48 186.33 445.752C186.33 444.344 186.746 443.064 187.578 441.912C188.41 440.728 189.594 439.8 191.13 439.128C192.698 438.456 194.49 438.12 196.506 438.12C199.514 438.12 201.93 438.888 203.754 440.424C205.61 441.928 206.602 443.992 206.73 446.616H201.258C201.162 445.432 200.682 444.488 199.818 443.784C198.954 443.08 197.786 442.728 196.314 442.728C194.874 442.728 193.77 443 193.002 443.544C192.234 444.088 191.85 444.808 191.85 445.704C191.85 446.408 192.106 447 192.618 447.48C193.13 447.96 193.754 448.344 194.49 448.632C195.226 448.888 196.314 449.224 197.754 449.64C199.674 450.152 201.242 450.68 202.458 451.224C203.706 451.736 204.778 452.504 205.674 453.528C206.57 454.552 207.034 455.912 207.066 457.608C207.066 459.112 206.65 460.456 205.818 461.64C204.986 462.824 203.802 463.752 202.266 464.424C200.762 465.096 198.986 465.432 196.938 465.432ZM237.318 451.128C237.318 452.12 237.254 453.016 237.126 453.816H216.918C217.078 455.928 217.862 457.624 219.27 458.904C220.678 460.184 222.406 460.824 224.454 460.824C227.398 460.824 229.478 459.592 230.694 457.128H236.598C235.798 459.56 234.342 461.56 232.23 463.128C230.15 464.664 227.558 465.432 224.454 465.432C221.926 465.432 219.654 464.872 217.638 463.752C215.654 462.6 214.086 461 212.934 458.952C211.814 456.872 211.254 454.472 211.254 451.752C211.254 449.032 211.798 446.648 212.886 444.6C214.006 442.52 215.558 440.92 217.542 439.8C219.558 438.68 221.862 438.12 224.454 438.12C226.95 438.12 229.174 438.664 231.126 439.752C233.078 440.84 234.598 442.376 235.686 444.36C236.774 446.312 237.318 448.568 237.318 451.128ZM231.606 449.4C231.574 447.384 230.854 445.768 229.446 444.552C228.038 443.336 226.294 442.728 224.214 442.728C222.326 442.728 220.71 443.336 219.366 444.552C218.022 445.736 217.222 447.352 216.966 449.4H231.606ZM240.979 451.656C240.979 449 241.523 446.648 242.611 444.6C243.731 442.552 245.235 440.968 247.123 439.848C249.043 438.696 251.171 438.12 253.507 438.12C255.235 438.12 256.931 438.504 258.595 439.272C260.291 440.008 261.635 441 262.627 442.248V429.48H268.147V465H262.627V461.016C261.731 462.296 260.483 463.352 258.883 464.184C257.315 465.016 255.507 465.432 253.459 465.432C251.155 465.432 249.043 464.856 247.123 463.704C245.235 462.52 243.731 460.888 242.611 458.808C241.523 456.696 240.979 454.312 240.979 451.656ZM262.627 451.752C262.627 449.928 262.243 448.344 261.475 447C260.739 445.656 259.763 444.632 258.547 443.928C257.331 443.224 256.019 442.872 254.611 442.872C253.203 442.872 251.891 443.224 250.675 443.928C249.459 444.6 248.467 445.608 247.699 446.952C246.963 448.264 246.595 449.832 246.595 451.656C246.595 453.48 246.963 455.08 247.699 456.456C248.467 457.832 249.459 458.888 250.675 459.624C251.923 460.328 253.235 460.68 254.611 460.68C256.019 460.68 257.331 460.328 258.547 459.624C259.763 458.92 260.739 457.896 261.475 456.552C262.243 455.176 262.627 453.576 262.627 451.752ZM305.859 447.864C307.651 448.184 309.171 449.128 310.419 450.696C311.667 452.264 312.291 454.04 312.291 456.024C312.291 457.72 311.843 459.256 310.947 460.632C310.083 461.976 308.819 463.048 307.155 463.848C305.491 464.616 303.555 465 301.347 465H288.003V431.64H300.723C302.995 431.64 304.947 432.024 306.579 432.792C308.211 433.56 309.443 434.6 310.275 435.912C311.107 437.192 311.523 438.632 311.523 440.232C311.523 442.152 311.011 443.752 309.987 445.032C308.963 446.312 307.587 447.256 305.859 447.864ZM293.475 445.656H300.243C302.035 445.656 303.427 445.256 304.419 444.456C305.443 443.624 305.955 442.44 305.955 440.904C305.955 439.4 305.443 438.232 304.419 437.4C303.427 436.536 302.035 436.104 300.243 436.104H293.475V445.656ZM300.867 460.536C302.723 460.536 304.179 460.088 305.235 459.192C306.291 458.296 306.819 457.048 306.819 455.448C306.819 453.816 306.259 452.52 305.139 451.56C304.019 450.6 302.531 450.12 300.675 450.12H293.475V460.536H300.867ZM342.578 451.128C342.578 452.12 342.514 453.016 342.386 453.816H322.178C322.338 455.928 323.122 457.624 324.53 458.904C325.938 460.184 327.666 460.824 329.714 460.824C332.658 460.824 334.738 459.592 335.954 457.128H341.858C341.058 459.56 339.602 461.56 337.49 463.128C335.41 464.664 332.818 465.432 329.714 465.432C327.186 465.432 324.914 464.872 322.898 463.752C320.914 462.6 319.346 461 318.194 458.952C317.074 456.872 316.514 454.472 316.514 451.752C316.514 449.032 317.058 446.648 318.146 444.6C319.266 442.52 320.818 440.92 322.802 439.8C324.818 438.68 327.122 438.12 329.714 438.12C332.21 438.12 334.434 438.664 336.386 439.752C338.338 440.84 339.858 442.376 340.946 444.36C342.034 446.312 342.578 448.568 342.578 451.128ZM336.866 449.4C336.834 447.384 336.114 445.768 334.706 444.552C333.298 443.336 331.554 442.728 329.474 442.728C327.586 442.728 325.97 443.336 324.626 444.552C323.282 445.736 322.482 447.352 322.226 449.4H336.866ZM354.446 443.016V457.656C354.446 458.648 354.67 459.368 355.118 459.816C355.598 460.232 356.398 460.44 357.518 460.44H360.878V465H356.558C354.094 465 352.206 464.424 350.894 463.272C349.582 462.12 348.926 460.248 348.926 457.656V443.016H345.806V438.552H348.926V431.976H354.446V438.552H360.878V443.016H354.446ZM364.198 451.656C364.198 449 364.742 446.648 365.83 444.6C366.95 442.552 368.454 440.968 370.342 439.848C372.262 438.696 374.374 438.12 376.678 438.12C378.758 438.12 380.566 438.536 382.102 439.368C383.67 440.168 384.918 441.176 385.846 442.392V438.552H391.366V465H385.846V461.064C384.918 462.312 383.654 463.352 382.054 464.184C380.454 465.016 378.63 465.432 376.582 465.432C374.31 465.432 372.23 464.856 370.342 463.704C368.454 462.52 366.95 460.888 365.83 458.808C364.742 456.696 364.198 454.312 364.198 451.656ZM385.846 451.752C385.846 449.928 385.462 448.344 384.694 447C383.958 445.656 382.982 444.632 381.766 443.928C380.55 443.224 379.238 442.872 377.83 442.872C376.422 442.872 375.11 443.224 373.894 443.928C372.678 444.6 371.686 445.608 370.918 446.952C370.182 448.264 369.814 449.832 369.814 451.656C369.814 453.48 370.182 455.08 370.918 456.456C371.686 457.832 372.678 458.888 373.894 459.624C375.142 460.328 376.454 460.68 377.83 460.68C379.238 460.68 380.55 460.328 381.766 459.624C382.982 458.92 383.958 457.896 384.694 456.552C385.462 455.176 385.846 453.576 385.846 451.752Z" fill="#101010"/>
<path d="M76.0101 200.28C71.7701 200.28 68.0501 199.76 64.8501 198.72C61.7301 197.68 59.0501 196.44 56.8101 195C54.6501 193.48 52.9301 192 51.6501 190.56C50.3701 189.12 49.4901 188.04 49.0101 187.32C47.6501 185.56 46.8101 184.04 46.4901 182.76C46.1701 181.4 46.3301 180.04 46.9701 178.68C47.6901 177.32 48.8901 175.84 50.5701 174.24C52.2501 172.8 53.8101 172.04 55.2501 171.96C56.7701 171.8 58.2501 172.16 59.6901 173.04C61.1301 173.92 62.5301 175.16 63.8901 176.76C65.8101 179.08 67.6901 180.72 69.5301 181.68C71.4501 182.56 73.4501 183 75.5301 183C78.1701 183 80.4101 182.68 82.2501 182.04C84.0901 181.4 85.4901 180.4 86.4501 179.04C87.4101 177.6 87.8901 175.8 87.8901 173.64C87.8901 171.88 87.2101 170.48 85.8501 169.44C84.5701 168.32 82.8101 167.36 80.5701 166.56C78.4101 165.76 75.9701 165 73.2501 164.28C70.6101 163.48 67.9701 162.56 65.3301 161.52C63.4901 160.88 61.7301 160.08 60.0501 159.12C58.3701 158.16 56.7701 157.08 55.2501 155.88C53.7301 154.68 52.4101 153.24 51.2901 151.56C50.2501 149.88 49.4101 147.96 48.7701 145.8C48.2101 143.64 47.9301 141.16 47.9301 138.36C47.9301 133.64 49.0901 129.44 51.4101 125.76C53.7301 122.08 56.9301 119.2 61.0101 117.12C65.1701 114.96 69.9301 113.88 75.2901 113.88C78.8901 113.88 82.0101 114.2 84.6501 114.84C87.3701 115.48 89.6501 116.24 91.4901 117.12C93.3301 118 94.7701 118.88 95.8101 119.76C96.9301 120.56 97.6901 121.2 98.0901 121.68C100.33 123.76 101.57 125.56 101.81 127.08C102.05 128.52 101.21 130.56 99.2901 133.2C97.2901 136 95.2901 137.56 93.2901 137.88C91.3701 138.2 89.1701 137.52 86.6901 135.84C85.7301 134.96 84.7701 134.16 83.8101 133.44C82.8501 132.72 81.6901 132.16 80.3301 131.76C79.0501 131.28 77.3301 131.04 75.1701 131.04C73.8901 131.04 72.6901 131.24 71.5701 131.64C70.4501 131.96 69.4901 132.44 68.6901 133.08C67.8901 133.72 67.2501 134.52 66.7701 135.48C66.2901 136.36 66.0501 137.36 66.0501 138.48C66.0501 140.32 66.6501 141.8 67.8501 142.92C69.1301 144.04 70.7701 144.96 72.7701 145.68C74.8501 146.32 77.1301 146.96 79.6101 147.6C82.1701 148.16 84.7701 148.84 87.4101 149.64C89.8101 150.44 92.1301 151.44 94.3701 152.64C96.6101 153.76 98.6101 155.2 100.37 156.96C102.13 158.72 103.53 160.92 104.57 163.56C105.69 166.2 106.25 169.44 106.25 173.28C106.25 178.08 105.33 182.2 103.49 185.64C101.65 189.08 99.2101 191.88 96.1701 194.04C93.1301 196.2 89.8501 197.76 86.3301 198.72C82.8101 199.76 79.3701 200.28 76.0101 200.28Z" fill="white"/>
<path d="M143.058 199.08C139.778 199.08 136.858 198.88 134.298 198.48C131.818 198.16 129.658 197.52 127.818 196.56C126.058 195.6 124.618 194.28 123.498 192.6C122.378 190.92 121.538 188.76 120.978 186.12C120.498 183.4 120.258 180.08 120.258 176.16V120.72C120.258 119.12 120.378 117.64 120.618 116.28C120.938 114.92 121.738 113.8 123.018 112.92C124.298 112.04 126.378 111.6 129.258 111.6C132.138 111.6 134.178 112.04 135.378 112.92C136.658 113.8 137.458 114.92 137.778 116.28C138.098 117.64 138.258 119.12 138.258 120.72V175.32C138.258 176.6 138.298 177.68 138.378 178.56C138.538 179.36 138.778 180 139.098 180.48C139.498 180.96 140.018 181.28 140.658 181.44C141.298 181.6 142.138 181.68 143.178 181.68C144.138 181.68 145.098 181.8 146.058 182.04C147.098 182.28 147.978 183 148.698 184.2C149.418 185.4 149.778 187.4 149.778 190.2C149.778 193.08 149.418 195.16 148.698 196.44C147.978 197.72 147.098 198.48 146.058 198.72C145.098 198.96 144.098 199.08 143.058 199.08Z" fill="white"/>
<path d="M223.054 198.96C219.454 198.96 215.974 198.2 212.614 196.68C209.334 195.08 206.414 192.88 203.854 190.08C201.294 187.28 199.254 184.08 197.734 180.48C196.294 176.8 195.574 172.92 195.574 168.84C195.574 164.92 196.294 161.2 197.734 157.68C199.254 154.08 201.294 150.92 203.854 148.2C206.494 145.4 209.454 143.2 212.734 141.6C216.014 140 219.454 139.2 223.054 139.2C226.894 139.2 230.254 140 233.134 141.6C236.094 143.12 238.574 145.24 240.574 147.96C242.574 150.68 244.054 153.84 245.014 157.44C246.054 161.04 246.614 164.8 246.694 168.72C246.774 172.8 246.294 176.64 245.254 180.24C244.294 183.84 242.814 187.04 240.814 189.84C238.814 192.64 236.334 194.88 233.374 196.56C230.494 198.16 227.054 198.96 223.054 198.96ZM225.454 181.2C227.614 181.2 229.534 180.68 231.214 179.64C232.974 178.52 234.374 177.04 235.414 175.2C236.534 173.36 237.094 171.32 237.094 169.08C237.094 166.76 236.574 164.72 235.534 162.96C234.494 161.12 233.094 159.68 231.334 158.64C229.574 157.6 227.574 157.08 225.334 157.08C223.174 157.08 221.174 157.6 219.334 158.64C217.574 159.68 216.174 161.12 215.134 162.96C214.174 164.72 213.694 166.76 213.694 169.08C213.694 171.32 214.214 173.36 215.254 175.2C216.294 177.04 217.734 178.52 219.574 179.64C221.414 180.68 223.374 181.2 225.454 181.2ZM246.454 199.08C243.734 199.08 241.694 198.64 240.334 197.76C238.974 196.88 238.094 195.52 237.694 193.68V120.96C237.694 119.44 237.774 118 237.934 116.64C238.174 115.2 238.894 114.04 240.094 113.16C241.294 112.28 243.374 111.84 246.334 111.84C249.294 111.84 251.374 112.28 252.574 113.16C253.854 113.96 254.614 115.04 254.854 116.4C255.174 117.76 255.334 119.24 255.334 120.84V189.96C255.334 191.48 255.174 192.96 254.854 194.4C254.614 195.76 253.854 196.88 252.574 197.76C251.374 198.64 249.334 199.08 246.454 199.08Z" fill="white"/>
<path d="M301.086 200.16C295.486 200.16 290.646 199.24 286.566 197.4C282.566 195.56 279.286 193.16 276.726 190.2C274.166 187.16 272.246 183.8 270.966 180.12C269.766 176.44 269.166 172.76 269.166 169.08C269.166 163.08 270.526 157.76 273.246 153.12C275.966 148.48 279.726 144.84 284.526 142.2C289.326 139.48 294.846 138.12 301.086 138.12C305.726 138.12 309.726 138.88 313.086 140.4C316.526 141.84 319.326 143.76 321.486 146.16C323.726 148.48 325.366 151 326.406 153.72C327.526 156.44 328.086 159.04 328.086 161.52C328.086 165.92 327.006 169.2 324.846 171.36C322.766 173.44 320.086 174.48 316.806 174.48H288.246C288.406 176.56 289.126 178.32 290.406 179.76C291.766 181.2 293.446 182.32 295.446 183.12C297.446 183.92 299.566 184.32 301.806 184.32C303.726 184.32 305.406 184.24 306.846 184.08C308.286 183.84 309.526 183.56 310.566 183.24C311.606 182.84 312.566 182.48 313.446 182.16C314.326 181.76 315.086 181.44 315.726 181.2C316.446 180.96 317.126 180.8 317.766 180.72C318.966 180.64 320.046 181 321.006 181.8C322.046 182.52 322.966 183.64 323.766 185.16C324.326 186.04 324.686 186.88 324.846 187.68C325.086 188.48 325.206 189.28 325.206 190.08C325.206 192 324.206 193.72 322.206 195.24C320.286 196.76 317.526 197.96 313.926 198.84C310.406 199.72 306.126 200.16 301.086 200.16ZM288.246 164.64H307.206C308.486 164.64 309.406 164.44 309.966 164.04C310.606 163.56 310.926 162.68 310.926 161.4C310.926 159.96 310.486 158.72 309.606 157.68C308.726 156.56 307.526 155.72 306.006 155.16C304.566 154.52 302.886 154.2 300.966 154.2C298.486 154.2 296.286 154.68 294.366 155.64C292.446 156.6 290.926 157.88 289.806 159.48C288.766 161.08 288.246 162.8 288.246 164.64Z" fill="white"/>
<path d="M385.804 199.08C382.924 199.08 380.844 198.68 379.564 197.88C378.284 197 377.484 195.84 377.164 194.4C376.924 192.96 376.804 191.48 376.804 189.96V124.32C376.804 122.72 376.924 121.24 377.164 119.88C377.484 118.52 378.284 117.4 379.564 116.52C380.844 115.64 382.964 115.2 385.924 115.2C388.964 115.2 391.084 115.64 392.284 116.52C393.564 117.4 394.324 118.52 394.564 119.88C394.884 121.24 395.044 122.76 395.044 124.44V190.08C395.044 191.6 394.884 193.08 394.564 194.52C394.244 195.88 393.444 197 392.164 197.88C390.964 198.68 388.844 199.08 385.804 199.08Z" fill="white"/>
<path d="M440.934 199.08C436.854 199.08 433.334 198.64 430.374 197.76C427.494 196.88 425.094 195.52 423.174 193.68C421.254 191.84 419.814 189.52 418.854 186.72C417.974 183.84 417.534 180.44 417.534 176.52V127.8C417.534 126.2 417.654 124.76 417.894 123.48C418.214 122.2 419.014 121.16 420.294 120.36C421.574 119.48 423.654 119.04 426.534 119.04C429.414 119.04 431.494 119.48 432.774 120.36C434.054 121.24 434.814 122.36 435.054 123.72C435.374 125.08 435.534 126.56 435.534 128.16V175.8C435.534 177.08 435.614 178.16 435.774 179.04C436.014 179.84 436.334 180.44 436.734 180.84C437.134 181.24 437.694 181.52 438.414 181.68C439.134 181.84 440.014 181.92 441.054 181.92C442.814 181.92 444.374 182.08 445.734 182.4C447.094 182.72 448.134 183.44 448.854 184.56C449.654 185.68 450.054 187.56 450.054 190.2C450.054 193.08 449.614 195.16 448.734 196.44C447.854 197.72 446.694 198.48 445.254 198.72C443.894 198.96 442.454 199.08 440.934 199.08ZM413.814 140.04H427.014L443.574 139.56C445.094 139.56 446.534 139.72 447.894 140.04C449.254 140.28 450.374 141.04 451.254 142.32C452.134 143.6 452.574 145.72 452.574 148.68C452.574 151.4 452.134 153.4 451.254 154.68C450.454 155.96 449.374 156.8 448.014 157.2C446.654 157.52 445.174 157.68 443.574 157.68L427.854 157.32H413.334C411.014 157.24 409.374 156.56 408.414 155.28C407.534 153.92 407.094 151.68 407.094 148.56C407.094 145.68 407.654 143.56 408.774 142.2C409.894 140.76 411.574 140.04 413.814 140.04Z" fill="white"/>
<path d="M165 146.614C170.542 148.193 174.265 148.093 180 146.319C180.989 146.014 181 147.319 181 148C181 148.681 181 190 181 190C181 194.971 176.971 199 172 199C167.03 199 163 194.971 163 190V148C163.01 146.359 163.717 146.249 165 146.614Z" fill="white"/>
<circle cx="172" cy="124" r="12" fill="white"/>
</g>
<defs>
<clipPath id="clip0_186_339">
<rect width="500" height="500" fill="white"/>
</clipPath>
</defs>
</svg>
